#!OML:ASF H:\Terrain\Patient Classification 1\Terrain2\Thursday\justin.ASF
:FULLY-SPECIFIED
:DEGREES
3773
root 25.6408 17.5866 -0.535157 292.763 261.985 -649.488
lowerback 7.92758 2.45193 6.68339
upperback 3.32538 3.60763 4.0475
thorax -0.826231 1.74085 0.147355
lowerneck -13.9012 -1.94389 -10.129
upperneck 36.4185 -3.04501 4.88684
head 15.3151 -2.45622 3.23907
rclavicle -4.27387e-014 1.59028e-015
rhumerus -28.4905 -10.6553 -77.7195
rradius 31.1149
rwrist -9.48644
rhand -20.5529 11.7872
rfingers 7.12502
rthumb 5.80601 -18.1133
lclavicle -4.27387e-014 1.59028e-015
lhumerus -35.7026 12.7041 80.5812
lradius 28.8828
lwrist 0.312201
lhand -16.9856 21.0281
lfingers 7.12502
lthumb 9.24922 50.8052
rfemur 10.4788 -6.48036 28.3865
rtibia 21.2717
rfoot -15.903 2.8162
rtoes -3.1224
lfemur -31.491 0.409085 -11.426
ltibia 39.398
lfoot -4.58277 -4.86968
ltoes 22.4572
3774
root 25.5316 17.5911 -0.511548 292.879 262.326 -649.697
lowerback 7.93879 2.51045 6.29299
upperback 3.33739 3.66487 3.85792
thorax -0.832184 1.77243 0.16156
lowerneck -13.9615 -2.00742 -9.99316
upperneck 36.3954 -3.18224 4.92832
head 15.3295 -2.4861 3.20939
rclavicle 2.88238e-014 4.77083e-015
rhumerus -28.905 -10.8359 -77.7444
rradius 31.2554
rwrist -9.923
rhand -20.1105 11.801
rfingers 7.12502
rthumb 6.2331 -18.0873
lclavicle 2.88238e-014 4.77083e-015
lhumerus -35.6486 12.5003 80.534
lradius 28.9707
lwrist 0.839354
lhand -17.3275 21.1495
lfingers 7.12502
lthumb 8.91936 50.941
rfemur 9.70547 -6.54958 27.732
rtibia 23.5954
rfoot -15.2878 3.42751
rtoes -3.58855
lfemur -30.8958 0.190373 -11.9168
ltibia 39.2321
lfoot -4.77097 -5.13448
ltoes 23.5472
3775
root 25.4249 17.602 -0.484439 292.615 262.286 -649.406
lowerback 7.84013 2.65786 6.36775
upperback 3.32943 3.85908 3.79596
thorax -0.768181 1.87287 0.046696
lowerneck -13.8487 -2.14594 -10.025
upperneck 36.238 -3.37673 4.93847
head 15.2489 -2.56301 3.18354
rclavicle 1.98785e-015 1.66979e-014
rhumerus -29.2932 -11.1872 -77.5817
rradius 31.2828
rwrist -9.67545
rhand -20.0932 11.9597
rfingers 7.12502
rthumb 6.24982 -17.9281
lclavicle 1.98785e-015 1.66979e-014
lhumerus -35.4657 12.2732 80.596
lradius 28.9214
lwrist 1.14649
lhand -16.919 21.412
lfingers 7.12502
lthumb 9.31352 51.1863
rfemur 8.65541 -6.7647 27.446
rtibia 26.103
rfoot -14.5171 4.05257
rtoes -7.2587
lfemur -30.3648 -0.061033 -11.9111
ltibia 38.9871
lfoot -4.92301 -5.1579
ltoes 25.8239
3776
root 25.3168 17.6248 -0.456852 291.236 262.17 -648.076
lowerback 7.78223 2.60033 6.40134
upperback 3.31772 3.77849 3.95004
thorax -0.759798 1.83003 0.195672
lowerneck -13.6817 -2.07616 -10.2565
upperneck 36.2067 -3.19163 4.85716
head 15.1805 -2.52997 3.22013
rclavicle 7.7526e-015 -1.59028e-015
rhumerus -29.5377 -10.7947 -77.4075
rradius 31.2474
rwrist -9.68765
rhand -20.3544 12.2393
rfingers 7.12502
rthumb 5.99771 -17.6558
lclavicle 7.7526e-015 -1.59028e-015
lhumerus -35.565 12.5528 80.6842
lradius 28.9509
lwrist 1.15331
lhand -16.8113 21.6431
lfingers 7.12502
lthumb 9.41742 51.4127
rfemur 7.52918 -6.96934 27.2712
rtibia 28.8402
rfoot -13.3642 4.90136
rtoes -9.42183
lfemur -29.6481 -0.929571 -11.5134
ltibia 38.6669
lfoot -5.36197 -4.97007
ltoes 29.9191
3777
root 25.2086 17.6467 -0.432224 290.621 262.588 -647.687
lowerback 7.94295 2.5206 5.89785
upperback 3.33224 3.65587 3.85097
thorax -0.866955 1.7666 0.372005
lowerneck -13.7807 -2.02398 -10.2885
upperneck 36.4709 -3.14228 4.91216
head 15.3285 -2.51958 3.26331
rclavicle -6.36111e-015 -2.14687e-014
rhumerus -29.7826 -10.581 -77.4303
rradius 31.2581
rwrist -9.81026
rhand -20.4087 12.178
rfingers 7.12502
rthumb 5.94523 -17.7185
lclavicle -6.36111e-015 -2.14687e-014
lhumerus -35.6911 12.9707 80.4737
lradius 28.927
lwrist 0.851944
lhand -17.0654 21.7447
lfingers 7.12502
lthumb 9.1722 51.5253
rfemur 6.46825 -7.12914 26.4475
rtibia 31.7485
rfoot -11.7145 5.92061
rtoes -8.48935
lfemur -28.7044 -1.77337 -11.8421
ltibia 38.2382
lfoot -5.93174 -4.7326
ltoes 32.1235
3778
root 25.1 17.6636 -0.412268 290.964 262.867 -648.24
lowerback 8.09874 2.59502 5.44371
upperback 3.33171 3.74037 3.71166
thorax -0.973036 1.80758 0.464078
lowerneck -13.8489 -2.10006 -10.2041
upperneck 36.6387 -3.32015 4.98337
head 15.4451 -2.58085 3.25266
rclavicle -1.2424e-014 -3.73715e-014
rhumerus -30.0676 -11.1588 -77.2915
rradius 31.1499
rwrist -9.34131
rhand -20.2701 11.8526
rfingers 7.12502
rthumb 6.07903 -18.0402
lclavicle -1.2424e-014 -3.73715e-014
lhumerus -35.7073 13.2105 80.2487
lradius 28.7954
lwrist 0.676859
lhand -17.2625 21.6464
lfingers 7.12502
lthumb 8.98204 51.4352
rfemur 5.25014 -7.22692 25.6825
rtibia 34.8001
rfoot -9.5752 7.06667
rtoes -6.26131
lfemur -27.779 -1.82207 -12.3167
ltibia 37.7195
lfoot -6.2958 -4.75278
ltoes 31.5372
3779
root 24.9938 17.6841 -0.390853 291.874 263.012 -649.316
lowerback 8.22821 2.65296 5.00443
upperback 3.29836 3.80166 3.66548
thorax -1.10502 1.83508 0.646101
lowerneck -13.7634 -2.12013 -10.0623
upperneck 36.6775 -3.35742 4.83421
head 15.4417 -2.60142 3.1571
rclavicle 3.12092e-014 2.54444e-014
rhumerus -30.3379 -11.5339 -77.0987
rradius 30.9959
rwrist -8.7786
rhand -19.9016 11.8939
rfingers 7.12502
rthumb 6.43477 -17.9883
lclavicle 3.12092e-014 2.54444e-014
lhumerus -35.7743 13.0559 80.2426
lradius 28.7655
lwrist 1.05322
lhand -17.2541 21.5374
lfingers 7.12502
lthumb 8.99012 51.3258
rfemur 3.80975 -7.15562 25.0405
rtibia 37.9814
rfoot -6.86691 8.28951
rtoes -3.22262
lfemur -26.8742 -1.68158 -12.6936
ltibia 37.1484
lfoot -6.50308 -4.83404
ltoes 31.0966
